<svg width="800" height="275" xmlns="http://www.w3.org/2000/svg" version="1.1" enable-background="new 0 0 800 800" xml:space="preserve">
 <g>
  <title>Layer 1</title>
  <g id="svg_1" stroke="null">
   <path fill="#5694f1" d="m216.88659,29.26927l0,0l0,0l0,0l0,0c-5.07376,-3.81814 -10.32806,-7.22185 -15.72393,-10.22343c-3.90636,-2.17271 -8.81189,-1.15714 -11.49751,2.41481l-33.836,44.956l-2.41275,3.20675c-3.66427,4.86859 -9.5156,7.51934 -15.60288,7.24031c-2.2199,-0.10053 -4.43979,-0.08001 -6.65149,0.0595c-17.00622,1.07712 -33.45849,9.28377 -44.50874,23.96546c-8.88369,11.80321 -12.7798,25.80169 -12.06172,39.48422c0.12925,2.46405 1.55311,4.71472 3.79762,5.73644c4.65727,2.11731 8.24152,6.43606 9.1381,11.96119c1.26793,7.81478 -3.53296,15.49209 -11.1159,17.76533c-8.93909,2.67947 -18.12027,-2.79641 -20.135,-11.74371c-1.09148,-4.84602 0.16208,-9.66538 3.00158,-13.29476c1.57568,-2.01268 2.36762,-4.51981 2.14193,-7.06592c-1.55516,-17.54581 3.11853,-35.70301 14.54628,-50.8853c14.41497,-19.15021 36.34928,-29.28541 58.59955,-29.41467c4.28797,-0.02462 8.31333,-2.07423 10.89227,-5.5005l31.16063,-41.39842c2.43943,-3.23957 0.86375,-7.89479 -3.02825,-9.03757c-52.17375,-15.30539 -110.5948,1.91625 -145.58588,47.48775c-45.33966,59.04886 -34.32224,144.1887 24.59326,189.7007c5.51281,4.25925 11.24721,8.01994 17.15189,11.30055c3.88379,2.15835 8.7688,1.10174 11.44211,-2.44763l33.836,-44.95395l2.41275,-3.20675c3.66427,-4.86859 9.5156,-7.51934 15.60288,-7.24031c2.2199,0.10053 4.43979,0.08001 6.65149,-0.0595c17.00622,-1.07712 33.45849,-9.28377 44.50874,-23.96546c8.88369,-11.80321 12.7798,-25.80169 12.06172,-39.48422c-0.12925,-2.46405 -1.55311,-4.71472 -3.79762,-5.73644c-4.65727,-2.11731 -8.24152,-6.43606 -9.1381,-11.96119c-1.26793,-7.81478 3.53296,-15.49209 11.1159,-17.76328c8.93909,-2.67947 18.12027,2.79641 20.135,11.74371c1.09148,4.84602 -0.16208,9.66538 -3.00158,13.29476c-1.57568,2.01268 -2.36762,4.51981 -2.14193,7.06592c1.55516,17.54581 -3.11853,35.70301 -14.54628,50.8853c-14.41497,19.15021 -36.34928,29.28541 -58.59955,29.41467c-4.28797,0.02462 -8.31333,2.07423 -10.89227,5.5005l-31.15858,41.39637c-2.42096,3.217 -0.90068,7.88248 2.9626,9.0191c52.59023,15.45722 111.54472,-2.14399 146.45579,-48.52589c44.98472,-59.77515 33.00097,-144.70162 -26.77213,-189.69044z" id="svg_2" stroke="null"/>
   <g id="svg_3" stroke="null">
    <path fill="#5694f1" d="m440.46432,66.26893l-0.00205,-3.21495c-0.00205,-2.32453 -1.88753,-4.21001 -4.21206,-4.21001l-105.50463,0c-2.32658,0 -4.21206,1.88548 -4.21206,4.21206l0,6.43606c0,2.32658 1.88548,4.21206 4.21206,4.21206l89.51193,0c2.57483,0 4.55674,2.27119 4.17308,4.8173c-2.51123,16.64513 -10.38346,47.77293 -34.98288,77.66359c-1.73776,2.11116 -4.96297,2.07423 -6.64943,-0.08001c-20.58227,-26.31871 -26.91574,-53.30216 -28.64529,-63.24451c-0.37751,-2.17681 -2.39224,-3.67658 -4.58957,-3.44269l-3.37088,0.35699l-2.97286,0.3098c-2.43737,0.25441 -4.15667,2.51944 -3.7094,4.93014c2.10911,11.40313 9.79258,42.75867 33.95294,72.60419c1.40128,1.72955 1.28229,4.25925 -0.35904,5.76517c-29.41262,26.97729 -55.86468,32.89018 -65.32695,34.17452c-2.10706,0.28723 -3.68068,2.07013 -3.67042,4.1977l0.03077,6.50171c0.01231,2.50303 2.18502,4.46031 4.66958,4.16898c11.25131,-1.32332 41.27122,-7.67937 74.44248,-38.18757c1.63928,-1.50592 4.13205,-1.50592 5.76517,0.00615c16.02963,14.84377 36.51752,29.15616 64.14724,37.94547c2.23836,0.71193 4.6347,-0.58883 5.29739,-2.84155l1.81982,-6.16935c0.65243,-2.21169 -0.60934,-4.50955 -2.80462,-5.20917c-25.13695,-8.01789 -43.66961,-20.92694 -58.22204,-34.16221c-1.67826,-1.52644 -1.76238,-4.11563 -0.28928,-5.83903c41.0004,-48.00067 41.50511,-99.36606 41.501,-101.70085l0,0.00001z" id="svg_4" stroke="null"/>
    <path fill="#5694f1" d="m513.70248,52.10836l-6.43606,0c-2.32658,0 -4.21206,1.88548 -4.21206,4.21206l0,22.56622c0,2.32658 -1.88548,4.21206 -4.21206,4.21206l-15.13921,0c-2.32658,0 -4.21206,1.88548 -4.21206,4.21206l0,6.43606c0,2.32658 1.88548,4.21206 4.21206,4.21206l15.13921,0c2.32658,0 4.21206,1.88548 4.21206,4.21206l0,32.68912c0,2.32658 -1.88548,4.21206 -4.21206,4.21206l-15.13921,0c-2.32658,0 -4.21206,1.88548 -4.21206,4.21206l0,6.43606c0,2.32658 1.88548,4.21206 4.21206,4.21206l15.13921,0c2.32658,0 4.21206,1.88548 4.21206,4.21206l0,30.90828c0,6.70893 -2.68152,17.6566 -19.79443,19.10097c-2.21169,0.1867 -3.94124,1.97985 -3.94124,4.19975l0,6.41144c0,2.45379 2.08654,4.42543 4.53212,4.21616c16.6164,-1.4218 34.06373,-10.85739 34.06373,-33.92832l0,-30.90828c0,-2.32658 1.88548,-4.21206 4.21206,-4.21206l13.45274,0c2.32658,0 4.21206,-1.88548 4.21206,-4.21206l0,-6.43606c0,-2.32658 -1.88548,-4.21206 -4.21206,-4.21206l-13.45274,0c-2.32658,0 -4.21206,-1.88548 -4.21206,-4.21206l0,-32.68912c0,-2.32658 1.88548,-4.21206 4.21206,-4.21206l13.45274,0c2.32658,0 4.21206,-1.88548 4.21206,-4.21206l0,-6.43606c0,-2.32658 -1.88548,-4.21206 -4.21206,-4.21206l-13.45274,0c-2.32658,0 -4.21206,-1.88548 -4.21206,-4.21206l0,-22.56622c0,-2.32658 -1.88548,-4.21206 -4.21206,-4.21206z" id="svg_5" stroke="null"/>
    <path fill="#5694f1" d="m547.22252,217.75334c0,2.32658 1.88548,4.21206 4.21206,4.21206l47.47134,0c21.00696,0 38.0973,-16.29019 38.0973,-36.3144l0,-99.77229c0,-2.32658 -1.88548,-4.21206 -4.21206,-4.21206l-81.35658,0c-2.32658,0 -4.21206,1.88548 -4.21206,4.21206l0,131.87463zm51.6834,-10.64812l-32.61116,0c-2.32658,0 -4.21206,-1.88548 -4.21206,-4.21206l0,-44.74673c0,-2.32658 1.88548,-4.21206 4.21206,-4.21206l51.63416,0c2.32658,0 4.21206,1.88548 4.21206,4.21206l0,27.50457c0.00205,11.82988 -10.42244,21.45422 -23.23506,21.45422zm23.23712,-106.36427l0,34.12118c0,2.32658 -1.88548,4.21206 -4.21206,4.21206l-51.63416,0c-2.32658,0 -4.21206,-1.88548 -4.21206,-4.21206l0,-34.12118c0,-2.32658 1.88548,-4.21206 4.21206,-4.21206l51.63416,0c2.32658,0 4.21206,1.88548 4.21206,4.21206z" id="svg_6" stroke="null"/>
    <path fill="#5694f1" d="m611.89704,51.99757l-41.93596,0c-2.32658,0 -4.21206,1.88548 -4.21206,4.21206l0,6.43606c0,2.32658 1.88548,4.21206 4.21206,4.21206l41.93596,0c2.32658,0 4.21206,-1.88548 4.21206,-4.21206l0,-6.43606c0,-2.32658 -1.88548,-4.21206 -4.21206,-4.21206z" id="svg_7" stroke="null"/>
    <path fill="#5694f1" d="m772.19743,58.53417l-87.34537,0c-2.32658,0 -4.21206,1.88548 -4.21206,4.21206l0,6.43606c0,2.32658 1.88548,4.21206 4.21206,4.21206l87.34537,0c2.32658,0 4.21206,-1.88548 4.21206,-4.21206l0,-6.43606c0,-2.32658 -1.88548,-4.21206 -4.21206,-4.21206z" id="svg_8" stroke="null"/>
    <path fill="#5694f1" d="m734.87156,133.03614l60.84612,0c2.32658,0 4.21206,-1.88548 4.21206,-4.21206l0,-6.43606c0,-2.32658 -1.88548,-4.21206 -4.21206,-4.21206l-134.40433,0c-2.32658,0 -4.21206,1.88548 -4.21206,4.21206l0,6.43606c0,2.32658 1.88548,4.21206 4.21206,4.21206l41.59538,0c3.36062,0 5.3692,3.74223 3.51039,6.54275l-27.68101,49.94359c-0.74475,1.11816 -1.29665,2.21579 -1.68441,3.35036c-2.31633,6.76843 -1.23305,14.02926 2.97696,19.92163c4.41107,6.1755 11.70678,9.86028 19.50925,9.86028l75.86223,0c3.40986,0 6.52633,-1.70083 8.3318,-4.55058c1.77058,-2.78821 1.98806,-6.235 0.58062,-9.22222l-17.61556,-34.1458c-1.06686,-2.06807 -3.60887,-2.87848 -5.6749,-1.81162l-5.72003,2.95234c-2.06807,1.06686 -2.87848,3.60682 -1.81162,5.6749l10.37115,20.09807c1.44642,2.80462 -0.58883,6.14473 -3.74428,6.14473l-60.58145,0c-3.06108,0 -5.76517,-1.32742 -7.41881,-3.6417c-0.75296,-1.05045 -1.84444,-3.13904 -1.20843,-5.74055c0.10669,-0.43495 0.32211,-0.84734 0.57036,-1.22279l33.64109,-58.92371c2.17066,-3.26624 5.82877,-5.22968 9.74949,-5.22968l-0.00001,0z" id="svg_9" stroke="null"/>
   </g>
  </g>
 </g>

</svg>